<?xml version="1.0" encoding="UTF-8" standalone="no"?>
<!DOCTYPE svg PUBLIC "-//W3C//DTD SVG 1.1//EN"
 "http://www.w3.org/Graphics/SVG/1.1/DTD/svg11.dtd">
<!-- Generated by graphviz version 2.40.1 (20161225.0304)
 -->
<!-- Title: dependencies Pages: 1 -->
<svg width="2421pt" height="284pt"
 viewBox="0.00 0.00 2421.00 284.00" xmlns="http://www.w3.org/2000/svg" xmlns:xlink="http://www.w3.org/1999/xlink">
<g id="graph0" class="graph" transform="scale(1 1) rotate(0) translate(4 280)">
<title>dependencies</title>
<polygon fill="#ffffff" stroke="transparent" points="-4,4 -4,-280 2417,-280 2417,4 -4,4"/>
<text text-anchor="start" x="1185.5091" y="-42.4" font-family="sans-serif" font-weight="bold" font-size="14.00" fill="#000000">Legend</text>
<polygon fill="#ffffb3" stroke="transparent" points="972.5,-10 972.5,-30 992.5,-30 992.5,-10 972.5,-10"/>
<text text-anchor="start" x="996.129" y="-15.4" font-family="sans-serif" font-size="14.00" fill="#000000"> &#160;Declarations</text>
<polygon fill="#8dd3c7" stroke="transparent" points="1085.5,-10 1085.5,-30 1105.5,-30 1105.5,-10 1085.5,-10"/>
<text text-anchor="start" x="1109.2251" y="-15.4" font-family="sans-serif" font-size="14.00" fill="#000000"> &#160;Module</text>
<polygon fill="#80b1d3" stroke="transparent" points="1171.5,-10 1171.5,-30 1191.5,-30 1191.5,-10 1171.5,-10"/>
<text text-anchor="start" x="1195.2812" y="-15.4" font-family="sans-serif" font-size="14.00" fill="#000000"> &#160;Bootstrap</text>
<polygon fill="#fdb462" stroke="transparent" points="1268.5,-10 1268.5,-30 1288.5,-30 1288.5,-10 1268.5,-10"/>
<text text-anchor="start" x="1292.1732" y="-15.4" font-family="sans-serif" font-size="14.00" fill="#000000"> &#160;Providers</text>
<polygon fill="#fb8072" stroke="transparent" points="1364.5,-10 1364.5,-30 1384.5,-30 1384.5,-10 1364.5,-10"/>
<text text-anchor="start" x="1388.2258" y="-15.4" font-family="sans-serif" font-size="14.00" fill="#000000"> &#160;Exports</text>
<g id="clust1" class="cluster">
<title>cluster_AppModule</title>
<polygon fill="none" stroke="#000000" stroke-dasharray="1,5" points="8,-70 8,-268 2405,-268 2405,-70 8,-70"/>
</g>
<g id="clust2" class="cluster">
<title>cluster_AppModule_declarations</title>
<polygon fill="none" stroke="#000000" points="1290,-78 1290,-130 2397,-130 2397,-78 1290,-78"/>
</g>
<g id="clust11" class="cluster">
<title>cluster_AppModule_imports</title>
<polygon fill="none" stroke="#000000" points="1138,-78 1138,-130 1282,-130 1282,-78 1138,-78"/>
</g>
<g id="clust13" class="cluster">
<title>cluster_AppModule_bootstrap</title>
<polygon fill="none" stroke="#000000" points="1224,-208 1224,-260 1348,-260 1348,-208 1224,-208"/>
</g>
<g id="clust14" class="cluster">
<title>cluster_AppModule_providers</title>
<polygon fill="none" stroke="#000000" points="16,-78 16,-130 1130,-130 1130,-78 16,-78"/>
</g>
<!-- AppComponent -->
<g id="node1" class="node">
<title>AppComponent</title>
<polygon fill="#ffffb3" stroke="#000000" points="2388.9399,-122 2283.0601,-122 2283.0601,-86 2388.9399,-86 2388.9399,-122"/>
<text text-anchor="middle" x="2336" y="-99.8" font-family="Times,serif" font-size="14.00" fill="#000000">AppComponent</text>
</g>
<!-- AppModule -->
<g id="node9" class="node">
<title>AppModule</title>
<polygon fill="#8dd3c7" stroke="#000000" points="1327.6571,-187 1324.6571,-191 1303.6571,-191 1300.6571,-187 1244.3429,-187 1244.3429,-151 1327.6571,-151 1327.6571,-187"/>
<text text-anchor="middle" x="1286" y="-164.8" font-family="Times,serif" font-size="14.00" fill="#000000">AppModule</text>
</g>
<!-- AppComponent&#45;&gt;AppModule -->
<g id="edge1" class="edge">
<title>AppComponent&#45;&gt;AppModule</title>
<path fill="none" stroke="#000000" d="M2336,-122.3228C2336,-145.6602 2336,-183 2336,-183 2336,-183 1337.8092,-183 1337.8092,-183"/>
<polygon fill="#000000" stroke="#000000" points="1337.8092,-179.5001 1327.8092,-183 1337.8092,-186.5001 1337.8092,-179.5001"/>
</g>
<!-- GrupoComponent -->
<g id="node2" class="node">
<title>GrupoComponent</title>
<polygon fill="#ffffb3" stroke="#000000" points="2265.5996,-122 2148.4004,-122 2148.4004,-86 2265.5996,-86 2265.5996,-122"/>
<text text-anchor="middle" x="2207" y="-99.8" font-family="Times,serif" font-size="14.00" fill="#000000">GrupoComponent</text>
</g>
<!-- GrupoComponent&#45;&gt;AppModule -->
<g id="edge2" class="edge">
<title>GrupoComponent&#45;&gt;AppModule</title>
<path fill="none" stroke="#000000" d="M2207,-122.2921C2207,-144.2057 2207,-178 2207,-178 2207,-178 1337.6642,-178 1337.6642,-178"/>
<polygon fill="#000000" stroke="#000000" points="1337.6642,-174.5001 1327.6642,-178 1337.6642,-181.5001 1337.6642,-174.5001"/>
</g>
<!-- InicioComponent -->
<g id="node3" class="node">
<title>InicioComponent</title>
<polygon fill="#ffffb3" stroke="#000000" points="2129.9888,-122 2016.0112,-122 2016.0112,-86 2129.9888,-86 2129.9888,-122"/>
<text text-anchor="middle" x="2073" y="-99.8" font-family="Times,serif" font-size="14.00" fill="#000000">InicioComponent</text>
</g>
<!-- InicioComponent&#45;&gt;AppModule -->
<g id="edge3" class="edge">
<title>InicioComponent&#45;&gt;AppModule</title>
<path fill="none" stroke="#000000" d="M2073,-122.0267C2073,-142.7672 2073,-174 2073,-174 2073,-174 1337.7569,-174 1337.7569,-174"/>
<polygon fill="#000000" stroke="#000000" points="1337.7569,-170.5001 1327.7569,-174 1337.7568,-177.5001 1337.7569,-170.5001"/>
</g>
<!-- InvitacionesComponent -->
<g id="node4" class="node">
<title>InvitacionesComponent</title>
<polygon fill="#ffffb3" stroke="#000000" points="1997.7534,-122 1848.2466,-122 1848.2466,-86 1997.7534,-86 1997.7534,-122"/>
<text text-anchor="middle" x="1923" y="-99.8" font-family="Times,serif" font-size="14.00" fill="#000000">InvitacionesComponent</text>
</g>
<!-- InvitacionesComponent&#45;&gt;AppModule -->
<g id="edge4" class="edge">
<title>InvitacionesComponent&#45;&gt;AppModule</title>
<path fill="none" stroke="#000000" d="M1923,-122.1061C1923,-141.3391 1923,-169 1923,-169 1923,-169 1337.7953,-169 1337.7953,-169"/>
<polygon fill="#000000" stroke="#000000" points="1337.7954,-165.5001 1327.7953,-169 1337.7953,-172.5001 1337.7954,-165.5001"/>
</g>
<!-- LoginComponent -->
<g id="node5" class="node">
<title>LoginComponent</title>
<polygon fill="#ffffb3" stroke="#000000" points="1830.2758,-122 1715.7242,-122 1715.7242,-86 1830.2758,-86 1830.2758,-122"/>
<text text-anchor="middle" x="1773" y="-99.8" font-family="Times,serif" font-size="14.00" fill="#000000">LoginComponent</text>
</g>
<!-- LoginComponent&#45;&gt;AppModule -->
<g id="edge5" class="edge">
<title>LoginComponent&#45;&gt;AppModule</title>
<path fill="none" stroke="#000000" d="M1773,-122.302C1773,-140.2699 1773,-165 1773,-165 1773,-165 1337.9428,-165 1337.9428,-165"/>
<polygon fill="#000000" stroke="#000000" points="1337.9429,-161.5001 1327.9428,-165 1337.9428,-168.5001 1337.9429,-161.5001"/>
</g>
<!-- NavbarComponent -->
<g id="node6" class="node">
<title>NavbarComponent</title>
<polygon fill="#ffffb3" stroke="#000000" points="1697.0297,-122 1574.9703,-122 1574.9703,-86 1697.0297,-86 1697.0297,-122"/>
<text text-anchor="middle" x="1636" y="-99.8" font-family="Times,serif" font-size="14.00" fill="#000000">NavbarComponent</text>
</g>
<!-- NavbarComponent&#45;&gt;AppModule -->
<g id="edge6" class="edge">
<title>NavbarComponent&#45;&gt;AppModule</title>
<path fill="none" stroke="#000000" d="M1636,-122.027C1636,-138.3976 1636,-160 1636,-160 1636,-160 1337.8705,-160 1337.8705,-160"/>
<polygon fill="#000000" stroke="#000000" points="1337.8706,-156.5001 1327.8705,-160 1337.8705,-163.5001 1337.8706,-156.5001"/>
</g>
<!-- PerfilComponent -->
<g id="node7" class="node">
<title>PerfilComponent</title>
<polygon fill="#ffffb3" stroke="#000000" points="1557.4328,-122 1444.5672,-122 1444.5672,-86 1557.4328,-86 1557.4328,-122"/>
<text text-anchor="middle" x="1501" y="-99.8" font-family="Times,serif" font-size="14.00" fill="#000000">PerfilComponent</text>
</g>
<!-- PerfilComponent&#45;&gt;AppModule -->
<g id="edge7" class="edge">
<title>PerfilComponent&#45;&gt;AppModule</title>
<path fill="none" stroke="#000000" d="M1501,-122.1871C1501,-137.1824 1501,-156 1501,-156 1501,-156 1337.7091,-156 1337.7091,-156"/>
<polygon fill="#000000" stroke="#000000" points="1337.7091,-152.5001 1327.7091,-156 1337.7091,-159.5001 1337.7091,-152.5001"/>
</g>
<!-- RegistroComponent -->
<g id="node8" class="node">
<title>RegistroComponent</title>
<polygon fill="#ffffb3" stroke="#000000" points="1426.2702,-122 1297.7298,-122 1297.7298,-86 1426.2702,-86 1426.2702,-122"/>
<text text-anchor="middle" x="1362" y="-99.8" font-family="Times,serif" font-size="14.00" fill="#000000">RegistroComponent</text>
</g>
<!-- RegistroComponent&#45;&gt;AppModule -->
<g id="edge8" class="edge">
<title>RegistroComponent&#45;&gt;AppModule</title>
<path fill="none" stroke="#000000" d="M1312.7216,-122.1061C1312.7216,-122.1061 1312.7216,-140.991 1312.7216,-140.991"/>
<polygon fill="#000000" stroke="#000000" points="1309.2217,-140.9909 1312.7216,-150.991 1316.2217,-140.991 1309.2217,-140.9909"/>
</g>
<!-- AppComponent  -->
<g id="node11" class="node">
<title>AppComponent </title>
<polygon fill="#80b1d3" stroke="#000000" points="1340.439,-252 1231.561,-252 1231.561,-216 1340.439,-216 1340.439,-252"/>
<text text-anchor="middle" x="1286" y="-229.8" font-family="Times,serif" font-size="14.00" fill="#000000">AppComponent </text>
</g>
<!-- AppModule&#45;&gt;AppComponent  -->
<g id="edge10" class="edge">
<title>AppModule&#45;&gt;AppComponent </title>
<path fill="none" stroke="#000000" stroke-dasharray="1,5" d="M1286,-187.1061C1286,-187.1061 1286,-205.991 1286,-205.991"/>
<polygon fill="#000000" stroke="#000000" points="1282.5001,-205.9909 1286,-215.991 1289.5001,-205.991 1282.5001,-205.9909"/>
</g>
<!-- AppRoutingModule -->
<g id="node10" class="node">
<title>AppRoutingModule</title>
<polygon fill="#8dd3c7" stroke="#000000" points="1274.2744,-122 1271.2744,-126 1250.2744,-126 1247.2744,-122 1145.7256,-122 1145.7256,-86 1274.2744,-86 1274.2744,-122"/>
<text text-anchor="middle" x="1210" y="-99.8" font-family="Times,serif" font-size="14.00" fill="#000000">AppRoutingModule</text>
</g>
<!-- AppRoutingModule&#45;&gt;AppModule -->
<g id="edge9" class="edge">
<title>AppRoutingModule&#45;&gt;AppModule</title>
<path fill="none" stroke="#000000" d="M1259.2795,-122.1061C1259.2795,-122.1061 1259.2795,-140.991 1259.2795,-140.991"/>
<polygon fill="#000000" stroke="#000000" points="1255.7795,-140.9909 1259.2795,-150.991 1262.7795,-140.991 1255.7795,-140.9909"/>
</g>
<!-- AuthService -->
<g id="node12" class="node">
<title>AuthService</title>
<ellipse fill="#fdb462" stroke="#000000" cx="1063" cy="-104" rx="59.1083" ry="18"/>
<text text-anchor="middle" x="1063" y="-99.8" font-family="Times,serif" font-size="14.00" fill="#000000">AuthService</text>
</g>
<!-- AuthService&#45;&gt;AppModule -->
<g id="edge11" class="edge">
<title>AuthService&#45;&gt;AppModule</title>
<path fill="none" stroke="#000000" d="M1063,-122.1871C1063,-137.1824 1063,-156 1063,-156 1063,-156 1234.317,-156 1234.317,-156"/>
<polygon fill="#000000" stroke="#000000" points="1234.317,-159.5001 1244.317,-156 1234.317,-152.5001 1234.317,-159.5001"/>
</g>
<!-- CarroService -->
<g id="node13" class="node">
<title>CarroService</title>
<ellipse fill="#fdb462" stroke="#000000" cx="924" cy="-104" rx="61.9538" ry="18"/>
<text text-anchor="middle" x="924" y="-99.8" font-family="Times,serif" font-size="14.00" fill="#000000">CarroService</text>
</g>
<!-- CarroService&#45;&gt;AppModule -->
<g id="edge12" class="edge">
<title>CarroService&#45;&gt;AppModule</title>
<path fill="none" stroke="#000000" d="M924,-122.027C924,-138.3976 924,-160 924,-160 924,-160 1234.1204,-160 1234.1204,-160"/>
<polygon fill="#000000" stroke="#000000" points="1234.1204,-163.5001 1244.1204,-160 1234.1203,-156.5001 1234.1204,-163.5001"/>
</g>
<!-- DireccionService -->
<g id="node14" class="node">
<title>DireccionService</title>
<ellipse fill="#fdb462" stroke="#000000" cx="766" cy="-104" rx="78.125" ry="18"/>
<text text-anchor="middle" x="766" y="-99.8" font-family="Times,serif" font-size="14.00" fill="#000000">DireccionService</text>
</g>
<!-- DireccionService&#45;&gt;AppModule -->
<g id="edge13" class="edge">
<title>DireccionService&#45;&gt;AppModule</title>
<path fill="none" stroke="#000000" d="M766,-122.302C766,-140.2699 766,-165 766,-165 766,-165 1234.3252,-165 1234.3252,-165"/>
<polygon fill="#000000" stroke="#000000" points="1234.3253,-168.5001 1244.3252,-165 1234.3252,-161.5001 1234.3253,-168.5001"/>
</g>
<!-- GrupoService -->
<g id="node15" class="node">
<title>GrupoService</title>
<ellipse fill="#fdb462" stroke="#000000" cx="605" cy="-104" rx="64.8273" ry="18"/>
<text text-anchor="middle" x="605" y="-99.8" font-family="Times,serif" font-size="14.00" fill="#000000">GrupoService</text>
</g>
<!-- GrupoService&#45;&gt;AppModule -->
<g id="edge14" class="edge">
<title>GrupoService&#45;&gt;AppModule</title>
<path fill="none" stroke="#000000" d="M605,-122.1061C605,-141.3391 605,-169 605,-169 605,-169 1234.1703,-169 1234.1703,-169"/>
<polygon fill="#000000" stroke="#000000" points="1234.1703,-172.5001 1244.1703,-169 1234.1702,-165.5001 1234.1703,-172.5001"/>
</g>
<!-- InvitacionService -->
<g id="node16" class="node">
<title>InvitacionService</title>
<ellipse fill="#fdb462" stroke="#000000" cx="443" cy="-104" rx="79.2903" ry="18"/>
<text text-anchor="middle" x="443" y="-99.8" font-family="Times,serif" font-size="14.00" fill="#000000">InvitacionService</text>
</g>
<!-- InvitacionService&#45;&gt;AppModule -->
<g id="edge15" class="edge">
<title>InvitacionService&#45;&gt;AppModule</title>
<path fill="none" stroke="#000000" d="M443,-122.0267C443,-142.7672 443,-174 443,-174 443,-174 1234.1955,-174 1234.1955,-174"/>
<polygon fill="#000000" stroke="#000000" points="1234.1955,-177.5001 1244.1955,-174 1234.1955,-170.5001 1234.1955,-177.5001"/>
</g>
<!-- PertenecesService -->
<g id="node17" class="node">
<title>PertenecesService</title>
<ellipse fill="#fdb462" stroke="#000000" cx="265" cy="-104" rx="81.0532" ry="18"/>
<text text-anchor="middle" x="265" y="-99.8" font-family="Times,serif" font-size="14.00" fill="#000000">PertenecesService</text>
</g>
<!-- PertenecesService&#45;&gt;AppModule -->
<g id="edge16" class="edge">
<title>PertenecesService&#45;&gt;AppModule</title>
<path fill="none" stroke="#000000" d="M265,-122.2921C265,-144.2057 265,-178 265,-178 265,-178 1234.0721,-178 1234.0721,-178"/>
<polygon fill="#000000" stroke="#000000" points="1234.0722,-181.5001 1244.0721,-178 1234.0721,-174.5001 1234.0722,-181.5001"/>
</g>
<!-- UsuarioService -->
<g id="node18" class="node">
<title>UsuarioService</title>
<ellipse fill="#fdb462" stroke="#000000" cx="95" cy="-104" rx="70.622" ry="18"/>
<text text-anchor="middle" x="95" y="-99.8" font-family="Times,serif" font-size="14.00" fill="#000000">UsuarioService</text>
</g>
<!-- UsuarioService&#45;&gt;AppModule -->
<g id="edge17" class="edge">
<title>UsuarioService&#45;&gt;AppModule</title>
<path fill="none" stroke="#000000" d="M95,-122.3228C95,-145.6602 95,-183 95,-183 95,-183 1234.31,-183 1234.31,-183"/>
<polygon fill="#000000" stroke="#000000" points="1234.3101,-186.5001 1244.31,-183 1234.31,-179.5001 1234.3101,-186.5001"/>
</g>
</g>
</svg>
